<?xml version="1.0" encoding="UTF-8" standalone="no"?>
<svg
   height="32px"
   version="1.1"
   viewBox="0 0 32 32"
   width="32px"
   xmlns="http://www.w3.org/2000/svg">
  <g
     fill="none"
     fill-rule="evenodd"
     stroke="none"
     stroke-width="1">
    <g
       fill="#157EFB"
       id="icon-70-document-file-pdf"
       style="fill:#ff5555;fill-opacity:1"
       transform="matrix(1.0344828,0,0,1.1111111,-1.0689655,-2.3333333)">
      <path
         d="m 21,26 v 2.002578 C 21,29.109075 20.105724,30 19.002578,30 H 3.9974219 C 2.8909254,30 2,29.101288 2,27.99267 V 5.0073299 C 2,3.8983383 2.8992496,3 4.0085302,3 H 14 V 9.0018986 C 14,10.113294 14.898081,11 16.005919,11 H 21 v 2 H 7.4101409 c -1.660636,0 -3.006848,1.342264 -3.006848,2.998786 v 7.002428 C 4.4032929,24.657398 5.7392849,26 7.4101409,26 Z M 15,3 V 8.9970707 C 15,9.5509732 15.450975,10 15.990778,10 H 21 Z M 7.3978549,14 c -1.101566,0 -1.994562,0.900176 -1.994562,1.992017 v 7.015966 C 5.4032929,24.108144 6.3056369,25 7.3978549,25 H 29.005438 C 30.107004,25 31,24.099824 31,23.007983 V 15.992017 C 31,14.891856 30.097656,14 29.005438,14 Z"
         id="document-file-pdf"
         style="fill:#ff5555;fill-opacity:1" />
    </g>
    <text
       xml:space="preserve"
       style="font-size:10px;line-height:1.25;font-family:sans-serif"
       x="22.849817"
       y="8.8578453"
       id="text6203">
    </text>
    <text
       xml:space="preserve"
       style="font-style:normal;font-variant:normal;font-weight:bold;font-stretch:normal;font-size:10.7877px;line-height:1.25;font-family:'Nimbus Sans';-inkscape-font-specification:'Nimbus Sans Bold';fill:#ffffff;stroke-width:1.07877"
       x="5.7220798"
       y="20.432209"
       id="text9309"
       transform="scale(0.85093282,1.1751809)">
      <tspan
         id="tspan9307"
         x="5.7220798"
         y="20.432209"
         style="fill:#ffffff;stroke-width:1.07877">OPDF</tspan>
    </text>
  </g>
</svg>
